<svg version="1.1" id="Layer_1" xmlns="http://www.w3.org/2000/svg" xmlns:xlink="http://www.w3.org/1999/xlink" x="0px" y="0px"
	 width="100%" viewBox="0 0 343 425" enable-background="new 0 0 343 425" xml:space="preserve">
<path fill="#FFFFFF" opacity="1.000000" stroke="none" 
	d="
M182.000000,1.000001 
	C235.978226,1.000000 289.956451,1.000000 343.967346,1.000000 
	C343.967346,142.587769 343.967346,284.175568 343.967346,425.881653 
	C229.666733,425.881653 115.333389,425.881653 1.000020,425.878418 
	C1.000000,374.562531 1.000000,323.249939 1.293540,271.732056 
	C2.727329,278.183807 3.612627,284.896912 5.061263,291.486115 
	C8.014126,304.917389 12.107794,317.978241 19.020529,330.370361 
	C23.691050,338.174805 28.318897,345.623077 33.000748,353.413025 
	C39.720570,361.498566 46.386383,369.242432 53.192764,377.289307 
	C66.901497,390.436035 81.881729,401.220886 99.309868,409.069885 
	C109.757111,412.805573 119.883057,416.376434 130.393158,420.023346 
	C154.587265,426.426971 178.688477,426.798553 202.753540,422.459045 
	C241.934296,415.393860 274.420227,396.101715 300.781677,366.495209 
	C305.802582,360.856262 309.700348,354.217285 314.398621,347.864197 
	C319.793854,337.822113 324.906769,327.955566 330.287170,317.848694 
	C338.764313,298.328186 341.964478,278.007141 342.866882,257.252258 
	C343.044159,253.174835 342.322876,249.058334 342.020813,244.505219 
	C341.450226,225.302490 337.209991,207.342651 330.009094,190.097748 
	C324.317688,176.467819 317.938416,163.176758 307.994385,151.598801 
	C303.289612,145.690582 299.036316,139.718399 293.905518,134.631287 
	C280.681366,121.519783 266.061249,110.186638 249.227844,101.641258 
	C250.539246,94.781754 252.923203,88.283623 252.909500,81.790558 
	C252.827560,43.016560 225.950851,10.632468 187.980560,2.740635 
	C185.953995,2.319426 183.992035,1.587358 182.000000,1.000001 
z"/>
<path fill="#FFFFFF" opacity="1.000000" stroke="none" 
	d="
M0.999999,241.000000 
	C1.000000,161.087341 1.000000,81.174683 1.000000,1.000000 
	C54.353943,1.000000 107.708313,1.000000 161.326782,1.339747 
	C110.238708,11.632804 82.950226,52.905617 94.980896,101.916794 
	C69.564079,114.591347 48.927940,132.401886 32.667099,155.158569 
	C28.488239,161.006805 25.447544,167.668320 21.595182,174.129669 
	C11.985946,190.668518 5.819855,208.077469 3.641667,227.177521 
	C2.583766,231.974197 1.791882,236.487091 0.999999,241.000000 
z"/>
<path fill="#FE5A5A" opacity="1.000000" stroke="none" 
	d="
M95.359985,101.851250 
	C82.950226,52.905617 110.238708,11.632804 161.795441,1.339747 
	C168.354401,1.000000 174.708786,1.000000 181.531586,1.000001 
	C183.992035,1.587358 185.953995,2.319426 187.980560,2.740635 
	C225.950851,10.632468 252.827560,43.016560 252.909500,81.790558 
	C252.923203,88.283623 250.539246,94.781754 249.054840,101.969513 
	C245.214554,110.656448 242.032562,118.895737 237.852554,126.593063 
	C230.264252,140.566574 222.082138,154.217606 213.918198,168.264832 
	C209.069199,175.989746 204.449875,183.453064 199.566223,191.120117 
	C195.886765,196.867096 192.471603,202.410324 188.811310,208.199127 
	C185.782791,212.963760 182.575699,217.280670 180.303406,222.043579 
	C175.419678,232.280197 170.240753,233.878540 164.235870,222.294281 
	C154.556793,206.730606 144.979034,191.494812 135.316742,175.953415 
	C126.596153,160.988449 117.960114,146.329102 109.227844,131.332031 
	C104.541077,121.279968 99.950531,111.565605 95.359985,101.851250 
M240.371262,96.432518 
	C241.304398,91.392105 243.086777,86.342743 243.033691,81.312729 
	C242.672302,47.061157 218.692688,18.845839 184.848236,12.324941 
	C152.369125,6.067111 119.025169,24.223852 106.368393,55.479942 
	C100.879822,69.034050 98.362930,82.993416 104.790283,97.906136 
	C109.906227,108.606705 115.022171,119.307274 120.295921,130.671692 
	C128.133377,143.852386 135.970840,157.033096 144.064621,170.846191 
	C151.077454,181.889664 158.090286,192.933121 165.287155,204.633987 
	C167.473938,208.186401 169.660721,211.738800 172.274399,215.984680 
	C173.686386,213.335922 174.535477,211.743103 175.864883,209.697800 
	C178.254562,205.796448 180.644226,201.895096 183.564331,197.588150 
	C188.651215,189.367294 193.738113,181.146454 199.279037,172.410095 
	C207.690536,158.447449 216.544907,144.727341 224.368469,130.442673 
	C230.252197,119.699852 234.813110,108.232536 240.371262,96.432518 
z"/>
<path fill="#C2E2F2" opacity="1.000000" stroke="none" 
	d="
M0.999999,241.468658 
	C1.791882,236.487091 2.583766,231.974197 3.958224,227.356781 
	C7.692658,233.847824 10.976713,240.384506 13.949945,247.059616 
	C15.935440,251.517181 17.238934,256.290161 19.393829,260.652191 
	C19.910891,261.698822 22.599636,261.672607 24.289612,262.139771 
	C24.507034,260.381042 25.108175,258.563293 24.848928,256.877869 
	C24.490139,254.545273 23.483896,252.312241 22.754906,250.036575 
	C23.497581,249.814636 24.240255,249.592682 24.982931,249.370743 
	C26.632753,254.777557 28.590733,260.114532 29.837042,265.612823 
	C30.875210,270.192871 33.352047,271.998718 37.844570,272.056305 
	C40.914764,272.095642 43.978294,272.655243 46.764938,273.177185 
	C39.720009,287.108154 32.927284,300.830750 26.204283,314.587402 
	C23.711287,319.688507 21.381868,324.869598 18.977858,330.014221 
	C12.107794,317.978241 8.014126,304.917389 5.061263,291.486115 
	C3.612627,284.896912 2.727329,278.183807 1.293540,271.263397 
	C1.000000,261.312439 1.000000,251.624878 0.999999,241.468658 
z"/>
<path fill="#C3E3F3" opacity="1.000000" stroke="none" 
	d="
M94.980896,101.916794 
	C99.950531,111.565605 104.541077,121.279968 108.961899,131.655075 
	C106.413170,132.137100 104.034523,131.823914 101.655067,131.817551 
	C99.285202,131.811218 96.666069,131.534653 94.604828,132.420441 
	C91.801476,133.625137 89.328217,135.699539 86.888725,137.623306 
	C83.932449,139.954620 81.087181,142.441437 78.344177,145.020782 
	C77.333755,145.970932 76.066345,147.422424 76.143150,148.562607 
	C76.244461,150.066635 77.233406,152.317535 78.411041,152.773056 
	C80.797836,153.696289 83.559448,153.751663 86.182587,153.934387 
	C88.809525,154.117340 101.007317,162.255295 101.634102,164.720444 
	C101.933914,165.899582 101.218575,167.303604 101.347748,168.566406 
	C101.604935,171.080719 101.392288,174.098633 102.719154,175.937943 
	C104.569214,178.502518 105.268997,180.491745 104.351181,183.616608 
	C102.899025,188.560684 105.393044,191.564407 110.589722,192.018799 
	C115.228401,192.424423 118.562408,191.248505 120.015083,186.122711 
	C120.572433,184.156082 122.662117,182.387848 124.451485,181.069138 
	C126.447975,179.597778 128.896896,178.740295 131.148895,177.615616 
	C131.058380,177.531204 130.967865,177.446777 130.877350,177.362350 
	C132.385330,176.994568 133.893295,176.626801 135.401276,176.259018 
	C144.979034,191.494812 154.556793,206.730606 164.033066,222.627426 
	C163.505692,223.799530 163.076019,224.307510 162.654526,224.822205 
	C159.262222,228.964554 158.877243,234.102005 162.427261,237.449753 
	C165.660553,240.498810 169.317993,239.297012 172.841171,237.135910 
	C175.668411,235.401703 178.739273,234.043365 181.769531,232.666840 
	C185.481140,230.980835 187.877350,232.279175 188.850555,236.187820 
	C189.121536,237.276138 189.190109,238.414841 189.430634,240.077072 
	C197.950500,237.153870 205.175964,244.125793 213.505127,242.215927 
	C215.089020,241.852737 217.049774,242.883545 218.777359,243.451508 
	C221.799973,244.445236 222.561050,246.283722 220.930313,249.197922 
	C218.463837,253.605667 214.399918,253.929382 210.538895,252.558380 
	C201.336960,249.290878 192.179672,245.798920 183.300323,241.748764 
	C174.022522,237.516876 161.028564,241.372192 156.818878,250.575668 
	C154.408554,255.845276 152.114914,261.278137 150.732452,266.875519 
	C149.478821,271.951263 149.003998,277.362976 149.136993,282.602417 
	C149.316605,289.676941 155.288773,296.027100 162.299011,295.818665 
	C174.898224,295.444092 181.853653,306.120178 182.783890,316.219543 
	C184.005447,329.481781 186.886917,342.016602 193.801727,353.453918 
	C196.063156,357.194427 199.009430,361.735382 203.581924,360.648468 
	C207.231949,359.780792 211.679504,356.415009 213.078979,353.040710 
	C217.123169,343.289642 219.759064,332.958771 223.039917,322.885529 
	C225.694473,314.735168 228.436401,306.612457 231.224945,298.506836 
	C233.726547,291.235382 236.578705,288.535339 226.523193,282.949493 
	C219.093765,278.822449 216.955322,270.543884 215.050354,262.438477 
	C219.309952,261.489685 221.062286,263.746216 221.922821,266.516907 
	C222.694016,268.999969 222.799011,271.713898 223.011490,274.341064 
	C223.353622,278.570709 225.704819,282.129364 229.635666,281.691711 
	C237.192215,280.850403 244.822372,279.040436 249.943115,272.463135 
	C252.204086,269.559021 251.274994,264.311493 248.433899,264.222107 
	C242.746674,264.043060 241.288651,259.203796 238.097275,255.867889 
	C239.541046,255.431808 241.016647,255.228973 242.057251,255.807968 
	C246.050201,258.029510 250.033463,260.317352 253.765015,262.943237 
	C256.411194,264.805328 258.434326,268.753815 261.108978,269.132294 
	C267.278717,270.005341 267.448517,275.116150 269.802917,278.742889 
	C271.403564,281.208557 272.673096,284.016693 274.728516,286.015991 
	C276.163513,287.411804 278.677917,287.697998 280.710175,288.479797 
	C280.685120,286.391022 281.091278,284.181305 280.546234,282.238373 
	C279.371826,278.051849 280.132111,276.817078 284.095398,277.007965 
	C288.127106,277.202087 292.175507,277.050873 296.821655,277.050873 
	C298.860962,282.522491 301.026733,288.785339 303.596405,294.877808 
	C304.165802,296.227783 306.135223,297.721039 307.508881,297.769745 
	C308.641907,297.809845 309.897095,295.860107 311.008392,294.705750 
	C312.561768,293.092102 313.741516,290.858368 315.601715,289.858459 
	C318.797577,288.140503 320.487335,286.044830 319.997498,282.362793 
	C319.443848,278.200928 320.998810,274.892273 324.200562,272.260864 
	C327.144409,269.841400 330.051178,267.376770 332.982697,265.365601 
	C329.893646,278.695709 326.839935,291.603210 323.613312,304.467316 
	C323.362427,305.467529 321.899628,306.163727 320.678986,306.863464 
	C319.138062,306.767761 317.268005,306.316956 316.802704,306.930847 
	C313.476349,311.319550 310.923157,309.007416 307.790924,306.578674 
	C303.006622,302.868988 298.894470,303.239563 295.832489,307.905212 
	C292.112244,313.573883 287.805145,316.438232 280.842316,314.165314 
	C279.557159,313.745758 277.717590,315.024536 276.133911,315.519440 
	C276.824188,317.696777 276.961243,321.276947 278.301788,321.805634 
	C283.750397,323.954437 282.099701,327.024689 280.256226,330.410980 
	C279.147980,332.446686 277.779053,334.357391 276.835663,336.462463 
	C274.718811,341.186096 275.881195,343.199432 280.733734,345.129242 
	C285.334808,346.958984 288.696869,345.027374 292.123383,342.414490 
	C294.081207,340.921478 296.089813,339.118103 298.358948,338.507263 
	C301.100830,337.769196 304.777161,336.265076 305.756348,341.116516 
	C304.317017,342.466919 303.124420,343.620270 302.066528,344.886200 
	C296.228516,351.872406 290.894012,359.352570 284.509277,365.793457 
	C271.108337,379.312317 255.697647,390.336517 238.526718,398.558380 
	C206.447723,413.918610 172.676178,419.001465 137.433151,413.893982 
	C131.139145,412.981873 130.478653,413.454010 130.009003,419.947327 
	C119.883057,416.376434 109.757111,412.805573 99.360275,408.701447 
	C99.392525,406.445465 99.695656,404.722748 100.272858,402.773346 
	C102.264542,398.243225 103.962547,393.931824 105.704666,389.638306 
	C107.933044,384.146423 107.295769,383.101501 102.408905,380.097382 
	C95.107910,375.609283 88.089706,370.661194 80.955231,365.498230 
	C81.011078,360.783966 81.638718,356.965515 86.922882,355.923798 
	C88.004723,355.710541 88.834923,354.217712 89.779739,353.313232 
	C90.898407,352.242371 91.832382,350.689728 93.165115,350.181335 
	C98.893288,347.996185 102.293365,344.442413 102.060684,337.910858 
	C101.933640,334.344788 103.340256,331.973633 107.618309,331.910400 
	C111.295128,331.856049 113.367928,329.776825 114.335686,325.857147 
	C115.708107,320.298584 117.085327,314.443726 123.031380,311.450287 
	C120.384140,304.611908 116.087700,300.378021 109.090500,298.771332 
	C105.296211,297.900085 101.304153,296.957916 100.547890,291.729797 
	C100.316101,290.127411 98.151993,288.637115 96.612740,287.425934 
	C93.359695,284.866241 89.920479,282.544434 86.584595,280.088409 
	C82.096451,276.784058 74.585732,276.502319 69.752426,279.608490 
	C66.917534,281.430389 65.446541,280.525757 63.946602,277.693268 
	C62.518654,274.996674 60.616032,272.374725 58.365940,270.332855 
	C55.227036,267.484375 54.148857,261.367554 47.742783,263.037170 
	C47.501911,263.099945 46.133629,260.631500 46.086887,259.314362 
	C45.935444,255.047028 50.254410,251.863297 54.363728,253.346848 
	C56.640438,254.168808 58.556141,255.951477 60.709236,257.169067 
	C62.112167,257.962402 63.649338,258.518341 65.215790,259.220703 
	C67.412292,248.012344 72.008492,239.208038 81.584518,234.122864 
	C85.587326,231.997269 90.364113,231.334213 94.782074,229.983582 
	C97.653244,229.105804 100.967262,228.806641 102.174110,223.975784 
	C99.577248,224.338776 97.580109,224.951889 95.652100,224.781754 
	C94.109940,224.645660 92.651817,223.557129 91.156387,222.891327 
	C92.392624,221.924286 93.517288,220.717667 94.903282,220.072220 
	C95.870232,219.621918 97.608543,220.407196 98.273926,219.817993 
	C99.643723,218.605072 101.721245,216.497055 101.395515,215.365128 
	C100.167206,211.096573 98.585594,206.759323 96.222672,203.026031 
	C92.307571,196.840347 89.925766,196.270996 84.505211,198.780350 
	C83.578285,197.933426 82.736710,196.558258 81.601822,196.244690 
	C78.565971,195.405899 75.025978,193.876663 72.388206,194.747604 
	C69.076027,195.841232 70.663475,199.383377 71.518044,202.124664 
	C72.556427,205.455582 72.298195,208.573990 69.399666,210.577393 
	C65.519127,207.149277 61.618507,204.253036 58.477730,200.687469 
	C56.998066,199.007660 56.977707,196.042389 56.296089,193.659607 
	C58.043350,193.416855 59.796875,192.934952 61.536583,192.980545 
	C65.283035,193.078659 68.840096,193.043060 70.894821,188.707016 
	C67.305840,187.015167 66.341026,184.384079 68.013588,180.961517 
	C68.800125,179.352066 69.456757,177.452087 70.755798,176.414062 
	C71.424667,175.879608 74.230293,176.577454 74.568520,177.364136 
	C75.326553,179.127304 75.550919,181.361526 75.233986,183.278519 
	C74.905075,185.267929 73.681831,187.109482 73.126228,188.382248 
	C77.048050,190.214996 80.248962,192.161560 83.722313,193.166214 
	C85.831238,193.776199 89.612930,193.783020 90.443871,192.562943 
	C92.224792,189.948029 94.245094,185.531387 93.158798,183.352478 
	C91.126610,179.276260 87.470551,175.434189 83.553276,173.005966 
	C77.438469,169.215576 70.657761,166.378601 63.894619,163.843460 
	C62.287544,163.241043 59.084869,164.956314 57.691116,166.547256 
	C57.001183,167.334793 58.493507,170.407043 59.476540,172.180603 
	C60.427422,173.896133 61.991962,175.271545 63.286957,176.796356 
	C62.772182,177.275391 62.257408,177.754425 61.742634,178.233459 
	C58.460285,175.800293 55.177937,173.367111 51.195499,170.414963 
	C51.397469,173.367966 51.510738,175.024063 51.638329,176.889618 
	C48.982880,175.866791 46.383743,173.827133 44.817417,174.437561 
	C36.980881,177.491653 29.478317,175.987747 21.883980,173.956207 
	C25.447544,167.668320 28.488239,161.006805 32.667099,155.158569 
	C48.927940,132.401886 69.564079,114.591347 94.980896,101.916794 
z"/>
<path fill="#E5EFCC" opacity="1.000000" stroke="none" 
	d="
M332.974274,264.932037 
	C330.051178,267.376770 327.144409,269.841400 324.200562,272.260864 
	C320.998810,274.892273 319.443848,278.200928 319.997498,282.362793 
	C320.487335,286.044830 318.797577,288.140503 315.601715,289.858459 
	C313.741516,290.858368 312.561768,293.092102 311.008392,294.705750 
	C309.897095,295.860107 308.641907,297.809845 307.508881,297.769745 
	C306.135223,297.721039 304.165802,296.227783 303.596405,294.877808 
	C301.026733,288.785339 298.860962,282.522491 296.821655,277.050873 
	C292.175507,277.050873 288.127106,277.202087 284.095398,277.007965 
	C280.132111,276.817078 279.371826,278.051849 280.546234,282.238373 
	C281.091278,284.181305 280.685120,286.391022 280.710175,288.479797 
	C278.677917,287.697998 276.163513,287.411804 274.728516,286.015991 
	C272.673096,284.016693 271.403564,281.208557 269.802917,278.742889 
	C267.448517,275.116150 267.278717,270.005341 261.108978,269.132294 
	C258.434326,268.753815 256.411194,264.805328 253.765015,262.943237 
	C250.033463,260.317352 246.050201,258.029510 242.057251,255.807968 
	C241.016647,255.228973 239.541046,255.431808 238.097275,255.867889 
	C241.288651,259.203796 242.746674,264.043060 248.433899,264.222107 
	C251.274994,264.311493 252.204086,269.559021 249.943115,272.463135 
	C244.822372,279.040436 237.192215,280.850403 229.635666,281.691711 
	C225.704819,282.129364 223.353622,278.570709 223.011490,274.341064 
	C222.799011,271.713898 222.694016,268.999969 221.922821,266.516907 
	C221.062286,263.746216 219.309952,261.489685 215.050354,262.438477 
	C216.955322,270.543884 219.093765,278.822449 226.523193,282.949493 
	C236.578705,288.535339 233.726547,291.235382 231.224945,298.506836 
	C228.436401,306.612457 225.694473,314.735168 223.039917,322.885529 
	C219.759064,332.958771 217.123169,343.289642 213.078979,353.040710 
	C211.679504,356.415009 207.231949,359.780792 203.581924,360.648468 
	C199.009430,361.735382 196.063156,357.194427 193.801727,353.453918 
	C186.886917,342.016602 184.005447,329.481781 182.783890,316.219543 
	C181.853653,306.120178 174.898224,295.444092 162.299011,295.818665 
	C155.288773,296.027100 149.316605,289.676941 149.136993,282.602417 
	C149.003998,277.362976 149.478821,271.951263 150.732452,266.875519 
	C152.114914,261.278137 154.408554,255.845276 156.818878,250.575668 
	C161.028564,241.372192 174.022522,237.516876 183.300323,241.748764 
	C192.179672,245.798920 201.336960,249.290878 210.538895,252.558380 
	C214.399918,253.929382 218.463837,253.605667 220.930313,249.197922 
	C222.561050,246.283722 221.799973,244.445236 218.777359,243.451508 
	C217.049774,242.883545 215.089020,241.852737 213.505127,242.215927 
	C205.175964,244.125793 197.950500,237.153870 189.430634,240.077072 
	C189.190109,238.414841 189.121536,237.276138 188.850555,236.187820 
	C187.877350,232.279175 185.481140,230.980835 181.769531,232.666840 
	C178.739273,234.043365 175.668411,235.401703 172.841171,237.135910 
	C169.317993,239.297012 165.660553,240.498810 162.427261,237.449753 
	C158.877243,234.102005 159.262222,228.964554 162.654526,224.822205 
	C163.076019,224.307510 163.505692,223.799530 164.134399,222.955307 
	C170.240753,233.878540 175.419678,232.280197 180.303406,222.043579 
	C182.575699,217.280670 185.782791,212.963760 189.192139,208.259064 
	C194.174606,209.365570 200.556656,207.490570 203.265198,204.122772 
	C206.251358,200.409775 205.300781,196.754730 199.830551,190.916382 
	C204.449875,183.453064 209.069199,175.989746 214.273865,168.314087 
	C217.174011,169.287781 220.136246,169.927765 221.682861,171.761658 
	C226.426926,177.386871 229.110809,178.624237 235.919128,175.827530 
	C241.137039,173.684113 246.054214,170.819519 251.175125,168.425354 
	C254.885559,166.690643 258.487732,163.046509 262.872559,167.222763 
	C263.101440,167.440750 263.853210,167.351044 264.218353,167.147583 
	C268.234863,164.909500 267.762756,168.065247 267.947174,170.277405 
	C268.098877,172.097000 267.653473,174.067719 268.202789,175.730225 
	C269.139923,178.566574 270.982086,179.827576 272.786530,177.651810 
	C271.999359,174.293793 270.768127,170.685226 272.058533,168.918884 
	C274.617981,165.415466 278.124542,161.839539 282.035309,160.245331 
	C290.438080,156.819962 299.345367,154.632324 308.046143,151.937988 
	C317.938416,163.176758 324.317688,176.467819 330.009094,190.097748 
	C337.209991,207.342651 341.450226,225.302490 341.714050,244.359070 
	C340.515350,243.287994 339.656616,241.889145 338.735504,240.532623 
	C336.523132,237.274384 333.580719,236.487885 327.706970,238.755295 
	C338.309265,238.676208 337.533142,246.146896 337.646515,251.305405 
	C337.745514,255.811218 334.655396,260.387115 332.974274,264.932037 
z"/>
<path fill="#C3E2F2" opacity="1.000000" stroke="none" 
	d="
M307.994385,151.598785 
	C299.345367,154.632324 290.438080,156.819962 282.035309,160.245331 
	C278.124542,161.839539 274.617981,165.415466 272.058533,168.918884 
	C270.768127,170.685226 271.999359,174.293793 272.786530,177.651810 
	C270.982086,179.827576 269.139923,178.566574 268.202789,175.730225 
	C267.653473,174.067719 268.098877,172.097000 267.947174,170.277405 
	C267.762756,168.065247 268.234863,164.909500 264.218353,167.147583 
	C263.853210,167.351044 263.101440,167.440750 262.872559,167.222763 
	C258.487732,163.046509 254.885559,166.690643 251.175125,168.425354 
	C246.054214,170.819519 241.137039,173.684113 235.919128,175.827530 
	C229.110809,178.624237 226.426926,177.386871 221.682861,171.761658 
	C220.136246,169.927765 217.174011,169.287781 214.503540,168.052490 
	C222.082138,154.217606 230.264252,140.566574 237.852554,126.593063 
	C242.032562,118.895737 245.214554,110.656448 249.019516,102.333237 
	C266.061249,110.186638 280.681366,121.519783 293.905518,134.631287 
	C299.036316,139.718399 303.289612,145.690582 307.994385,151.598785 
z"/>
<path fill="#C2E2F2" opacity="1.000000" stroke="none" 
	d="
M80.951218,365.908783 
	C88.089706,370.661194 95.107910,375.609283 102.408905,380.097382 
	C107.295769,383.101501 107.933044,384.146423 105.704666,389.638306 
	C103.962547,393.931824 102.264542,398.243225 99.903717,402.733521 
	C85.350983,397.837280 72.981689,390.014801 60.966827,381.527527 
	C58.493507,379.780365 55.698776,378.488220 53.052200,376.986328 
	C46.386383,369.242432 39.720570,361.498566 33.169960,353.040894 
	C34.258659,344.827087 34.709808,337.213593 36.309738,329.849670 
	C40.145557,312.194794 46.079250,295.202606 54.317879,279.098663 
	C57.819283,282.163330 60.450336,286.180481 67.021072,284.120575 
	C65.584953,287.491241 64.927330,289.850403 63.669823,291.828156 
	C60.343025,297.060364 59.089973,302.421906 61.645836,308.317047 
	C62.635811,310.600433 63.266647,313.137817 64.673653,315.125946 
	C73.004036,326.897095 71.794983,339.301361 68.221649,352.307098 
	C66.314758,359.247589 65.636101,366.609863 65.216385,373.829010 
	C65.069069,376.362976 67.349693,379.038086 68.521652,381.648743 
	C70.623695,380.000732 73.191917,378.696991 74.721169,376.626068 
	C77.161125,373.321899 78.910080,369.507446 80.951218,365.908783 
z"/>
<path fill="#BEDCEA" opacity="1.000000" stroke="none" 
	d="
M130.393158,420.023346 
	C130.478653,413.454010 131.139145,412.981873 137.433151,413.893982 
	C172.676178,419.001465 206.447723,413.918610 238.526718,398.558380 
	C255.697647,390.336517 271.108337,379.312317 284.509277,365.793457 
	C290.894012,359.352570 296.228516,351.872406 302.066528,344.886200 
	C303.124420,343.620270 304.317017,342.466919 306.046295,341.270020 
	C309.135559,343.532196 311.625946,345.785950 314.116333,348.039703 
	C309.700348,354.217285 305.802582,360.856262 300.781677,366.495209 
	C274.420227,396.101715 241.934296,415.393860 202.753540,422.459045 
	C178.688477,426.798553 154.587265,426.426971 130.393158,420.023346 
z"/>
<path fill="#E5EFCC" opacity="1.000000" stroke="none" 
	d="
M314.398621,347.864197 
	C311.625946,345.785950 309.135559,343.532196 306.355225,341.124969 
	C304.777161,336.265076 301.100830,337.769196 298.358948,338.507263 
	C296.089813,339.118103 294.081207,340.921478 292.123383,342.414490 
	C288.696869,345.027374 285.334808,346.958984 280.733734,345.129242 
	C275.881195,343.199432 274.718811,341.186096 276.835663,336.462463 
	C277.779053,334.357391 279.147980,332.446686 280.256226,330.410980 
	C282.099701,327.024689 283.750397,323.954437 278.301788,321.805634 
	C276.961243,321.276947 276.824188,317.696777 276.133911,315.519440 
	C277.717590,315.024536 279.557159,313.745758 280.842316,314.165314 
	C287.805145,316.438232 292.112244,313.573883 295.832489,307.905212 
	C298.894470,303.239563 303.006622,302.868988 307.790924,306.578674 
	C310.923157,309.007416 313.476349,311.319550 316.802704,306.930847 
	C317.268005,306.316956 319.138062,306.767761 320.819946,307.180481 
	C323.142487,311.999237 325.463226,315.978516 330.019714,318.089050 
	C324.906769,327.955566 319.793854,337.822113 314.398621,347.864197 
z"/>
<path fill="#C6E5F5" opacity="1.000000" stroke="none" 
	d="
M54.018539,278.941437 
	C46.079250,295.202606 40.145557,312.194794 36.309738,329.849670 
	C34.709808,337.213593 34.258659,344.827087 33.115952,352.699249 
	C28.318897,345.623077 23.691050,338.174805 19.020531,330.370361 
	C21.381868,324.869598 23.711287,319.688507 26.204283,314.587402 
	C32.927284,300.830750 39.720009,287.108154 47.113297,273.210724 
	C49.833855,275.013397 51.926197,276.977417 54.018539,278.941437 
z"/>
<path fill="#BEDDEA" opacity="1.000000" stroke="none" 
	d="
M330.287170,317.848694 
	C325.463226,315.978516 323.142487,311.999237 321.141052,307.318237 
	C321.899628,306.163727 323.362427,305.467529 323.613312,304.467316 
	C326.839935,291.603210 329.893646,278.695709 332.982697,265.365601 
	C334.655396,260.387115 337.745514,255.811218 337.646515,251.305405 
	C337.533142,246.146896 338.309265,238.676208 327.706970,238.755295 
	C333.580719,236.487885 336.523132,237.274384 338.735504,240.532623 
	C339.656616,241.889145 340.515350,243.287994 341.709229,244.813736 
	C342.322876,249.058334 343.044159,253.174835 342.866882,257.252258 
	C341.964478,278.007141 338.764313,298.328186 330.287170,317.848694 
z"/>
<path fill="#BFDDEB" opacity="1.000000" stroke="none" 
	d="
M53.192764,377.289307 
	C55.698776,378.488220 58.493507,379.780365 60.966827,381.527527 
	C72.981689,390.014801 85.350983,397.837280 99.629654,402.960175 
	C99.695656,404.722748 99.392525,406.445465 99.038986,408.536621 
	C81.881729,401.220886 66.901497,390.436035 53.192764,377.289307 
z"/>
<path fill="#E5EFCC" opacity="1.000000" stroke="none" 
	d="
M54.317879,279.098663 
	C51.926197,276.977417 49.833855,275.013397 47.393158,273.015808 
	C43.978294,272.655243 40.914764,272.095642 37.844570,272.056305 
	C33.352047,271.998718 30.875210,270.192871 29.837042,265.612823 
	C28.590733,260.114532 26.632753,254.777557 24.982931,249.370743 
	C24.240255,249.592682 23.497581,249.814636 22.754906,250.036575 
	C23.483896,252.312241 24.490139,254.545273 24.848928,256.877869 
	C25.108175,258.563293 24.507034,260.381042 24.289612,262.139771 
	C22.599636,261.672607 19.910891,261.698822 19.393829,260.652191 
	C17.238934,256.290161 15.935440,251.517181 13.949945,247.059616 
	C10.976713,240.384506 7.692658,233.847824 4.224241,227.073013 
	C5.819855,208.077469 11.985946,190.668518 21.595182,174.129669 
	C29.478317,175.987747 36.980881,177.491653 44.817417,174.437561 
	C46.383743,173.827133 48.982880,175.866791 51.638329,176.889618 
	C51.510738,175.024063 51.397469,173.367966 51.195499,170.414963 
	C55.177937,173.367111 58.460285,175.800293 61.742634,178.233459 
	C62.257408,177.754425 62.772182,177.275391 63.286957,176.796356 
	C61.991962,175.271545 60.427422,173.896133 59.476540,172.180603 
	C58.493507,170.407043 57.001183,167.334793 57.691116,166.547256 
	C59.084869,164.956314 62.287544,163.241043 63.894619,163.843460 
	C70.657761,166.378601 77.438469,169.215576 83.553276,173.005966 
	C87.470551,175.434189 91.126610,179.276260 93.158798,183.352478 
	C94.245094,185.531387 92.224792,189.948029 90.443871,192.562943 
	C89.612930,193.783020 85.831238,193.776199 83.722313,193.166214 
	C80.248962,192.161560 77.048050,190.214996 73.126228,188.382248 
	C73.681831,187.109482 74.905075,185.267929 75.233986,183.278519 
	C75.550919,181.361526 75.326553,179.127304 74.568520,177.364136 
	C74.230293,176.577454 71.424667,175.879608 70.755798,176.414062 
	C69.456757,177.452087 68.800125,179.352066 68.013588,180.961517 
	C66.341026,184.384079 67.305840,187.015167 70.894821,188.707016 
	C68.840096,193.043060 65.283035,193.078659 61.536583,192.980545 
	C59.796875,192.934952 58.043350,193.416855 56.296089,193.659607 
	C56.977707,196.042389 56.998066,199.007660 58.477730,200.687469 
	C61.618507,204.253036 65.519127,207.149277 69.399666,210.577393 
	C72.298195,208.573990 72.556427,205.455582 71.518044,202.124664 
	C70.663475,199.383377 69.076027,195.841232 72.388206,194.747604 
	C75.025978,193.876663 78.565971,195.405899 81.601822,196.244690 
	C82.736710,196.558258 83.578285,197.933426 84.505211,198.780350 
	C89.925766,196.270996 92.307571,196.840347 96.222672,203.026031 
	C98.585594,206.759323 100.167206,211.096573 101.395515,215.365128 
	C101.721245,216.497055 99.643723,218.605072 98.273926,219.817993 
	C97.608543,220.407196 95.870232,219.621918 94.903282,220.072220 
	C93.517288,220.717667 92.392624,221.924286 91.156387,222.891327 
	C92.651817,223.557129 94.109940,224.645660 95.652100,224.781754 
	C97.580109,224.951889 99.577248,224.338776 102.174110,223.975784 
	C100.967262,228.806641 97.653244,229.105804 94.782074,229.983582 
	C90.364113,231.334213 85.587326,231.997269 81.584518,234.122864 
	C72.008492,239.208038 67.412292,248.012344 65.215790,259.220703 
	C63.649338,258.518341 62.112167,257.962402 60.709236,257.169067 
	C58.556141,255.951477 56.640438,254.168808 54.363728,253.346848 
	C50.254410,251.863297 45.935444,255.047028 46.086887,259.314362 
	C46.133629,260.631500 47.501911,263.099945 47.742783,263.037170 
	C54.148857,261.367554 55.227036,267.484375 58.365940,270.332855 
	C60.616032,272.374725 62.518654,274.996674 63.946602,277.693268 
	C65.446541,280.525757 66.917534,281.430389 69.752426,279.608490 
	C74.585732,276.502319 82.096451,276.784058 86.584595,280.088409 
	C89.920479,282.544434 93.359695,284.866241 96.612740,287.425934 
	C98.151993,288.637115 100.316101,290.127411 100.547890,291.729797 
	C101.304153,296.957916 105.296211,297.900085 109.090500,298.771332 
	C116.087700,300.378021 120.384140,304.611908 123.031380,311.450287 
	C117.085327,314.443726 115.708107,320.298584 114.335686,325.857147 
	C113.367928,329.776825 111.295128,331.856049 107.618309,331.910400 
	C103.340256,331.973633 101.933640,334.344788 102.060684,337.910858 
	C102.293365,344.442413 98.893288,347.996185 93.165115,350.181335 
	C91.832382,350.689728 90.898407,352.242371 89.779739,353.313232 
	C88.834923,354.217712 88.004723,355.710541 86.922882,355.923798 
	C81.638718,356.965515 81.011078,360.783966 80.955231,365.498230 
	C78.910080,369.507446 77.161125,373.321899 74.721169,376.626068 
	C73.191917,378.696991 70.623695,380.000732 68.521652,381.648743 
	C67.349693,379.038086 65.069069,376.362976 65.216385,373.829010 
	C65.636101,366.609863 66.314758,359.247589 68.221649,352.307098 
	C71.794983,339.301361 73.004036,326.897095 64.673653,315.125946 
	C63.266647,313.137817 62.635811,310.600433 61.645836,308.317047 
	C59.089973,302.421906 60.343025,297.060364 63.669823,291.828156 
	C64.927330,289.850403 65.584953,287.491241 67.021072,284.120575 
	C60.450336,286.180481 57.819283,282.163330 54.317879,279.098663 
z"/>
<path fill="#C5E3F4" opacity="1.000000" stroke="none" 
	d="
M183.033905,197.993759 
	C180.644226,201.895096 178.254562,205.796448 175.209564,209.883270 
	C173.264404,208.874939 171.296570,207.901901 170.821487,206.442810 
	C169.727615,203.083282 168.151260,202.173355 165.103119,203.976593 
	C158.090286,192.933121 151.077454,181.889664 143.984222,170.060776 
	C144.094193,164.209930 143.267899,158.988083 147.030930,154.577271 
	C147.656647,153.843842 147.370529,151.485611 146.636032,150.597794 
	C144.451904,147.957809 145.536301,145.999695 147.441574,144.140747 
	C148.972046,142.647522 150.832077,141.488586 152.335953,139.972992 
	C153.063690,139.239609 153.933807,137.715485 153.628479,137.105026 
	C153.157120,136.162598 151.669815,135.055878 150.722916,135.147751 
	C147.684479,135.442490 144.700333,136.276077 141.687439,136.861557 
	C139.299927,137.325500 136.900955,137.730301 133.331253,138.373077 
	C134.419861,136.120575 134.682526,135.204285 135.232132,134.517685 
	C136.365067,133.102341 137.651184,131.809601 138.874268,130.466415 
	C137.071259,129.536896 135.341171,128.080429 133.445816,127.818069 
	C131.320923,127.523941 129.037094,128.256454 126.839737,128.641205 
	C124.594917,129.034256 122.371117,129.547318 120.138115,130.007843 
	C115.022171,119.307274 109.906227,108.606705 105.099106,97.380188 
	C114.926346,93.878670 124.444763,90.903091 134.116241,88.272156 
	C138.077499,101.791550 146.050613,111.354942 159.094772,115.979561 
	C180.509003,123.571663 204.181000,111.780876 210.773270,87.929901 
	C220.786194,91.020103 230.374542,94.053925 239.962891,97.087738 
	C234.813110,108.232536 230.252197,119.699852 224.368469,130.442673 
	C216.544907,144.727341 207.690536,158.447449 198.694565,172.693848 
	C189.064972,176.650085 182.347107,183.018524 177.302170,191.216736 
	C176.335953,192.786896 176.012207,194.752426 175.392059,196.535538 
	C177.161285,196.787109 178.936829,197.002274 180.696945,197.306686 
	C181.491760,197.444153 182.255859,197.759247 183.033905,197.993759 
z"/>
<path fill="#FFFDFD" opacity="1.000000" stroke="none" 
	d="
M133.963181,87.927521 
	C124.444763,90.903091 114.926346,93.878670 105.049789,97.007515 
	C98.362930,82.993416 100.879822,69.034050 106.368393,55.479942 
	C119.025169,24.223852 152.369125,6.067111 184.848236,12.324941 
	C218.692688,18.845839 242.672302,47.061157 243.033691,81.312729 
	C243.086777,86.342743 241.304398,91.392105 240.167084,96.760132 
	C230.374542,94.053925 220.786194,91.020103 210.829742,87.470840 
	C213.148285,67.602516 204.605560,51.397160 187.643951,43.670738 
	C172.766037,36.893494 154.326797,40.915901 143.093094,53.584549 
	C134.337936,63.458080 131.820847,75.100853 133.963181,87.927521 
z"/>
<path fill="#E5EECC" opacity="1.000000" stroke="none" 
	d="
M135.316742,175.953415 
	C133.893295,176.626801 132.385330,176.994568 130.877350,177.362350 
	C130.967865,177.446777 131.058380,177.531204 131.148895,177.615616 
	C128.896896,178.740295 126.447975,179.597778 124.451485,181.069138 
	C122.662117,182.387848 120.572433,184.156082 120.015083,186.122711 
	C118.562408,191.248505 115.228401,192.424423 110.589722,192.018799 
	C105.393044,191.564407 102.899025,188.560684 104.351181,183.616608 
	C105.268997,180.491745 104.569214,178.502518 102.719154,175.937943 
	C101.392288,174.098633 101.604935,171.080719 101.347748,168.566406 
	C101.218575,167.303604 101.933914,165.899582 101.634102,164.720444 
	C101.007317,162.255295 88.809525,154.117340 86.182587,153.934387 
	C83.559448,153.751663 80.797836,153.696289 78.411041,152.773056 
	C77.233406,152.317535 76.244461,150.066635 76.143150,148.562607 
	C76.066345,147.422424 77.333755,145.970932 78.344177,145.020782 
	C81.087181,142.441437 83.932449,139.954620 86.888725,137.623306 
	C89.328217,135.699539 91.801476,133.625137 94.604828,132.420441 
	C96.666069,131.534653 99.285202,131.811218 101.655067,131.817551 
	C104.034523,131.823914 106.413170,132.137100 109.058121,131.992783 
	C117.960114,146.329102 126.596153,160.988449 135.316742,175.953415 
z"/>
<path fill="#E4EDCC" opacity="1.000000" stroke="none" 
	d="
M120.217018,130.339767 
	C122.371117,129.547318 124.594917,129.034256 126.839737,128.641205 
	C129.037094,128.256454 131.320923,127.523941 133.445816,127.818069 
	C135.341171,128.080429 137.071259,129.536896 138.874268,130.466415 
	C137.651184,131.809601 136.365067,133.102341 135.232132,134.517685 
	C134.682526,135.204285 134.419861,136.120575 133.331253,138.373077 
	C136.900955,137.730301 139.299927,137.325500 141.687439,136.861557 
	C144.700333,136.276077 147.684479,135.442490 150.722916,135.147751 
	C151.669815,135.055878 153.157120,136.162598 153.628479,137.105026 
	C153.933807,137.715485 153.063690,139.239609 152.335953,139.972992 
	C150.832077,141.488586 148.972046,142.647522 147.441574,144.140747 
	C145.536301,145.999695 144.451904,147.957809 146.636032,150.597794 
	C147.370529,151.485611 147.656647,153.843842 147.030930,154.577271 
	C143.267899,158.988083 144.094193,164.209930 143.856079,169.744568 
	C135.970840,157.033096 128.133377,143.852386 120.217018,130.339767 
z"/>
<path fill="#E4ECCB" opacity="1.000000" stroke="none" 
	d="
M183.299118,197.790955 
	C182.255859,197.759247 181.491760,197.444153 180.696945,197.306686 
	C178.936829,197.002274 177.161285,196.787109 175.392059,196.535538 
	C176.012207,194.752426 176.335953,192.786896 177.302170,191.216736 
	C182.347107,183.018524 189.064972,176.650085 198.467560,172.951599 
	C193.738113,181.146454 188.651215,189.367294 183.299118,197.790955 
z"/>
<path fill="#CAE4E9" opacity="1.000000" stroke="none" 
	d="
M199.566223,191.120117 
	C205.300781,196.754730 206.251358,200.409775 203.265198,204.122772 
	C200.556656,207.490570 194.174606,209.365570 189.437286,208.013489 
	C192.471603,202.410324 195.886765,196.867096 199.566223,191.120117 
z"/>
<path fill="#E4E8C9" opacity="1.000000" stroke="none" 
	d="
M165.195129,204.305298 
	C168.151260,202.173355 169.727615,203.083282 170.821487,206.442810 
	C171.296570,207.901901 173.264404,208.874939 174.969391,210.109528 
	C174.535477,211.743103 173.686386,213.335922 172.274399,215.984680 
	C169.660721,211.738800 167.473938,208.186401 165.195129,204.305298 
z"/>
<path fill="#FE5A5B" opacity="1.000000" stroke="none" 
	d="
M134.116241,88.272156 
	C131.820847,75.100853 134.337936,63.458080 143.093094,53.584549 
	C154.326797,40.915901 172.766037,36.893494 187.643951,43.670738 
	C204.605560,51.397160 213.148285,67.602516 210.405151,87.414444 
	C204.181000,111.780876 180.509003,123.571663 159.094772,115.979561 
	C146.050613,111.354942 138.077499,101.791550 134.116241,88.272156 
M200.570328,85.291870 
	C202.636276,72.325928 197.856583,61.162800 187.465775,54.685711 
	C177.244995,48.314602 164.968948,48.784943 155.078369,55.926601 
	C145.588928,62.778610 141.364563,74.403008 144.161102,86.664948 
	C144.783722,88.384651 145.288773,90.158218 146.047928,91.815376 
	C151.266327,103.206841 163.253250,109.565262 176.513123,108.037331 
	C187.798889,106.736893 197.944122,97.282768 200.570328,85.291870 
z"/>
<path fill="#FEFDFD" opacity="1.000000" stroke="none" 
	d="
M144.176483,85.925911 
	C141.364563,74.403008 145.588928,62.778610 155.078369,55.926601 
	C164.968948,48.784943 177.244995,48.314602 187.465775,54.685711 
	C197.856583,61.162800 202.636276,72.325928 199.934326,85.631424 
	C196.371140,85.538017 193.457596,84.926292 190.514511,84.701996 
	C175.031097,83.521965 159.554962,82.983971 144.176483,85.925911 
z"/>
<path fill="#C2E0F1" opacity="1.000000" stroke="none" 
	d="
M144.168793,86.295425 
	C159.554962,82.983971 175.031097,83.521965 190.514511,84.701996 
	C193.457596,84.926292 196.371140,85.538017 199.725082,85.989944 
	C197.944122,97.282768 187.798889,106.736893 176.513123,108.037331 
	C163.253250,109.565262 151.266327,103.206841 146.047928,91.815376 
	C145.288773,90.158218 144.783722,88.384651 144.168793,86.295425 
z"/>
</svg>